<svg xmlns="http://www.w3.org/2000/svg" width="200" height="200" viewBox="0 0 200 200">
  <!-- 背景圆形 -->
  <circle cx="100" cy="100" r="90" fill="#f0f0f0" stroke="#333" stroke-width="2"/>
  <!-- 小狗身体 -->
  <path d="M70,130 C60,110 50,90 70,70 C90,50 110,50 130,70 C150,90 140,110 130,130 C120,140 110,145 100,145 C90,145 80,140 70,130 Z" fill="white" stroke="#000" stroke-width="2"/>
  <!-- 小狗头部 -->
  <circle cx="150" cy="90" r="20" fill="white" stroke="#000" stroke-width="2"/>
  <!-- 小狗耳朵 -->
  <path d="M140,70 L130,60 L135,70 Z" fill="#000"/>
  <path d="M160,70 L170,60 L165,70 Z" fill="#000"/>
  <!-- 小狗眼睛 -->
  <circle cx="145" cy="85" r="3" fill="#000"/>
  <circle cx="155" cy="85" r="3" fill="#000"/>
  <!-- 小狗鼻子 -->
  <ellipse cx="150" cy="95" rx="3" ry="2" fill="#000"/>
  <!-- 小狗嘴巴 -->
  <path d="M150,97 L150,100" stroke="#000" stroke-width="1"/>
  <!-- 小狗尾巴 -->
  <path d="M70,130 C50,120 40,100 50,80" stroke="#000" stroke-width="2" fill="none" stroke-linecap="round"/>
  <!-- 小狗斑点 -->
  <path d="M80,90 C75,85 70,95 80,100 C90,95 85,85 80,90 Z" fill="#000"/>
  <path d="M120,90 C115,85 110,95 120,100 C130,95 125,85 120,90 Z" fill="#000"/>
  <!-- 姓名 -->
  <text x="100" y="180" font-family="Arial, sans-serif" font-size="16" text-anchor="middle" fill="#333">董绍军</text>
</svg>