<svg xmlns="http://www.w3.org/2000/svg" width="200" height="200" viewBox="0 0 200 200">
  <!-- 背景圆形 -->
  <circle cx="100" cy="100" r="90" fill="#f0f0f0" stroke="#333" stroke-width="2"/>
  <!-- 脸部轮廓 -->
  <path d="M70,100 Q70,70 100,50 Q130,70 130,100 Q130,130 100,150 Q70,130 70,100 Z" fill="#ffd7b5" stroke="#333" stroke-width="1"/>
  <!-- 头发 -->
  <path d="M70,80 Q60,60 80,40 Q100,30 120,40 Q140,60 130,80 Q140,90 130,100 Q120,95 110,90 Q100,85 90,90 Q80,95 70,100 Q60,90 70,80 Z" fill="#333"/>
  <!-- 头发细节 -->
  <path d="M90,50 Q85,45 95,40" stroke="#555" stroke-width="1.5" fill="none"/>
  <path d="M110,50 Q115,45 105,40" stroke="#555" stroke-width="1.5" fill="none"/>
  <path d="M100,55 Q95,50 105,50" stroke="#555" stroke-width="1.5" fill="none"/>
  <!-- 眼睛 -->
  <ellipse cx="85" cy="90" rx="5" ry="4" fill="white" stroke="#333" stroke-width="1"/>
  <ellipse cx="115" cy="90" rx="5" ry="4" fill="white" stroke="#333" stroke-width="1"/>
  <ellipse cx="85" cy="90" rx="2" ry="2" fill="#333"/>
  <ellipse cx="114" cy="90" rx="2" ry="2" fill="#333"/>
  <!-- 嘴巴 -->
  <path d="M90,115 Q100,120 110,115" fill="none" stroke="#e57373" stroke-width="1.5"/>
  <!-- 衣服 -->
  <path d="M70,130 L60,160 L140,160 L130,130 Z" fill="#81c784" stroke="#333" stroke-width="1"/>
  <path d="M80,130 L80,160" stroke="#333" stroke-width="1"/>
  <path d="M120,130 L120,160" stroke="#333" stroke-width="1"/>
  <!-- 姓名 -->
  <text x="100" y="180" font-family="Arial, sans-serif" font-size="16" text-anchor="middle" fill="#333">张祎桥</text>
</svg>